<?xml version="1.0" standalone="no"?><!DOCTYPE svg PUBLIC "-//W3C//DTD SVG 1.1//EN" "http://www.w3.org/Graphics/SVG/1.1/DTD/svg11.dtd"><svg t="1510484128292" class="icon" style="" viewBox="0 0 1024 1024" version="1.1" xmlns="http://www.w3.org/2000/svg" p-id="1011" xmlns:xlink="http://www.w3.org/1999/xlink" width="96" height="96"><defs><style type="text/css"></style></defs><path d="M259.41333333 241.06666667m-202.88 0a202.88 202.88 0 1 0 405.76 0 202.88 202.88 0 1 0-405.76 0Z" fill="#FFF0C2" p-id="1012"></path><path d="M259.41333333 241.06666667m-127.89333333 0a127.89333333 127.89333333 0 1 0 255.78666667 0 127.89333333 127.89333333 0 1 0-255.78666667 0Z" fill="#FFDC0B" p-id="1013"></path><path d="M669.33333333 113.17333333c-118.61333333-0.64-222.4 62.82666667-278.72 157.86666667-30.93333333-13.86666667-65.17333333-21.65333333-101.22666666-21.97333333-141.01333333-1.28-255.36 111.36-256 252.37333333-0.10666667 13.54666667 0.96 26.88 2.88 39.89333333 0.21333333 1.38666667 0.42666667 2.88 0.64 4.26666667 16 93.97333333 98.45333333 162.24 193.81333333 162.24H735.46666667c104.21333333 0 198.18666667-64.32 234.02666666-162.13333333 0.53333333-1.38666667 1.06666667-2.88 1.6-4.37333334 11.73333333-33.38666667 18.13333333-69.22666667 18.13333334-106.56 0-177.17333333-142.50666667-320.53333333-319.89333334-321.6z" fill="#72AEFD" p-id="1014"></path><path d="M417.92 893.97333333c-14.08 25.49333333-46.08 34.66666667-71.57333333 20.69333334s-34.66666667-46.08-20.69333334-71.57333334c14.08-25.49333333 110.29333333-90.98666667 110.29333334-90.98666666s-3.94666667 116.48-18.02666667 141.86666666zM686.72 893.97333333c-14.08 25.49333333-46.08 34.66666667-71.57333333 20.69333334-25.49333333-14.08-34.66666667-46.08-20.69333334-71.57333334 14.08-25.49333333 110.29333333-90.98666667 110.29333334-90.98666666s-4.05333333 116.48-18.02666667 141.86666666z" fill="#C7E2FF" p-id="1015"></path></svg>